<svg width="36" height="36" viewBox="0 0 36 36" fill="none" xmlns="http://www.w3.org/2000/svg">
<path d="M34.4999 10.6648V10.6675V25.3325C34.4999 28.3185 33.6133 30.5818 32.0967 32.0977C30.5799 33.6137 28.3152 34.5 25.3274 34.5H10.6726C7.68473 34.5 5.42031 33.6137 3.90372 32.096C2.38704 30.5782 1.5 28.3105 1.5 25.315V10.6675C1.5 7.68151 2.38662 5.41818 3.90327 3.90228C5.41999 2.38632 7.68471 1.5 10.6726 1.5H25.3449C28.3329 1.5 30.5973 2.3864 32.1115 3.90184C33.6256 5.417 34.5081 7.6794 34.4999 10.6648ZM28.675 10.361L28.7141 10.3258L28.7493 10.2867C28.9798 10.0307 29.1644 9.74269 29.2969 9.42478C29.4271 9.11246 29.514 8.75428 29.514 8.375C29.514 8.00082 29.4294 7.64717 29.3021 7.33784C29.1588 6.9709 28.9597 6.697 28.7493 6.46335L28.6946 6.40256L28.6307 6.35148C28.6149 6.33883 28.6066 6.33157 28.5913 6.31823C28.5775 6.30619 28.5581 6.28921 28.5224 6.25884C28.475 6.21865 28.3886 6.14629 28.2813 6.07926C28.1364 5.98429 27.9801 5.90243 27.8124 5.84018C27.6479 5.76425 27.4716 5.70743 27.2746 5.67573C26.3773 5.49251 25.4377 5.80088 24.813 6.42522L24.7944 6.44381L24.7768 6.46335C24.5665 6.697 24.3674 6.9709 24.224 7.33784C24.0968 7.64717 24.0122 8.00082 24.0122 8.375C24.0122 8.75428 24.0991 9.11246 24.2293 9.42478C24.3618 9.74269 24.5464 10.0307 24.7768 10.2867L24.7944 10.3062L24.813 10.3248C25.3402 10.8517 26.0352 11.125 26.7631 11.125C27.1423 11.125 27.5005 11.0382 27.8129 10.9081C28.1308 10.7757 28.4189 10.5913 28.675 10.361ZM10.2153 18C10.2153 22.2978 13.71 25.79 18.0087 25.79C22.3074 25.79 25.8021 22.2978 25.8021 18C25.8021 13.7022 22.3074 10.21 18.0087 10.21C13.71 10.21 10.2153 13.7022 10.2153 18Z" stroke="white" stroke-width="2"/>
</svg>
